<?xml version="1.0" encoding="ISO-8859-1" standalone="no"?>
<!DOCTYPE svg PUBLIC "-//W3C//DTD SVG 1.1//EN" "http://www.w3.org/Graphics/SVG/1.1/DTD/svg11.dtd">
<svg version="1.1" baseProfile="full" id="body" width="8in" height="8in" viewBox="0 0 1 1" preserveAspectRatio="none" xmlns="http://www.w3.org/2000/svg" xmlns:xlink="http://www.w3.org/1999/xlink" xmlns:ev="http://www.w3.org/2001/xml-events">
<title>SVG drawing</title>
<desc>This was produced by version 4.4 of GNU libplot, a free library for exporting 2-D vector graphics.</desc>
<rect id="background" x="0" y="0" width="1" height="1" stroke="none" fill="white"/>
<g id="content" transform="translate(0.275,0.4625) scale(1,-1) scale(0.125) " xml:space="preserve" stroke="black" stroke-linecap="butt" stroke-linejoin="miter" stroke-miterlimit="10.433" stroke-dasharray="none" stroke-dashoffset="0" stroke-opacity="1" fill="none" fill-rule="evenodd" fill-opacity="1" font-style="normal" font-variant="normal" font-weight="normal" font-stretch="normal" font-size-adjust="none" letter-spacing="normal" word-spacing="normal" text-anchor="start">
<rect x="0" y="-0.15" width="1" height="0.3" stroke-width="0.0094118" />
<text transform="translate(0.16424,-0.049028) scale(1,-1) scale(0.0069444) " font-family="Helvetica,sans-serif" font-size="20px" stroke="none" fill="black" >:index.html</text>
<line x1="0.1" y1="-0.07" x2="0.9" y2="-0.07" stroke-width="0.0094118" />
<rect x="1.8" y="-0.15" width="1" height="0.3" stroke-width="0.0094118" />
<text transform="translate(2.0608,-0.049028) scale(1,-1) scale(0.0069444) " font-family="Helvetica,sans-serif" font-size="20px" stroke="none" fill="black" >:main.js</text>
<line x1="1.9" y1="-0.07" x2="2.7" y2="-0.07" stroke-width="0.0094118" />
<line x1="0.5" y1="-0.15" x2="0.5" y2="-0.5" stroke-width="0.0094118" stroke-dasharray="0.05, 0.05"/>
<line x1="0.45" y1="-0.5" x2="0.55" y2="-0.5" stroke-width="0.0094118" />
<line x1="0.56" y1="-0.75" x2="2.24" y2="-0.75" stroke-width="0.0094118" />
<polygon points="2.14,-0.725 2.24,-0.75 2.14,-0.775 " stroke-width="0.0094118" fill="black" />
<text transform="translate(1.0063,-0.71569) scale(1,-1) scale(0.0069444) " font-family="Helvetica,sans-serif" font-size="20px" stroke="none" fill="black" >Load main.js</text>
<text transform="translate(1.3807,-0.88236) scale(1,-1) scale(0.0069444) " font-family="Helvetica,sans-serif" font-size="20px" stroke="none" fill="black" > </text>
<line x1="2.3" y1="-0.15" x2="2.3" y2="-0.75" stroke-width="0.0094118" stroke-dasharray="0.05, 0.05"/>
<line x1="2.25" y1="-0.75" x2="2.35" y2="-0.75" stroke-width="0.0094118" />
<line x1="2.25" y1="-0.75" x2="2.25" y2="-0.75" stroke-width="0.0094118" />
<line x1="2.35" y1="-0.75" x2="2.35" y2="-0.75" stroke-width="0.0094118" />
<line x1="2.25" y1="-0.75" x2="2.35" y2="-0.75" stroke-width="0.0094118" />
<line x1="0.45" y1="-0.5" x2="0.45" y2="-0.75" stroke-width="0.0094118" />
<line x1="0.55" y1="-0.5" x2="0.55" y2="-0.75" stroke-width="0.0094118" />
<line x1="0.45" y1="-0.75" x2="0.55" y2="-0.75" stroke-width="0.0094118" />
</g>
</svg>
