<?xml version="1.0" encoding="UTF-8" standalone="no"?>
<!DOCTYPE svg PUBLIC "-//W3C//DTD SVG 1.1//EN"
 "http://www.w3.org/Graphics/SVG/1.1/DTD/svg11.dtd">
<!-- Generated by graphviz version 2.26.3 (20100126.1600)
 -->
<!-- Title: G Pages: 1 -->
<svg width="234pt" height="130pt"
 viewBox="0.00 0.00 234.00 130.00" xmlns="http://www.w3.org/2000/svg" xmlns:xlink="http://www.w3.org/1999/xlink">
<g id="graph1" class="graph" transform="scale(1 1) rotate(0) translate(4 126)">
<title>G</title>
<polygon fill="white" stroke="white" points="-4,5 -4,-126 231,-126 231,5 -4,5"/>
<!-- c0 -->
<g id="node1" class="node"><title>c0</title>
<a xlink:href="null" xlink:title="&lt;TABLE&gt;">
<polygon fill="none" stroke="black" points="180,-36 90,-36 86,-32 86,-1.77636e-14 176,-4.15743e-15 180,-4 180,-36"/>
<polyline fill="none" stroke="black" points="176,-32 86,-32 "/>
<polyline fill="none" stroke="black" points="176,-32 176,-4.15743e-15 "/>
<polyline fill="none" stroke="black" points="176,-32 180,-36 "/>
<polygon fill="lightblue" stroke="lightblue" points="94,-7.5 94,-28.5 172,-28.5 172,-7.5 94,-7.5"/>
<text text-anchor="start" x="97" y="-14.2333" font-family="Helvetica,sans-Serif" font-size="14.00"> Index.html </text>
</a>
</g>
<!-- n0cc0 -->
<g id="node2" class="node"><title>n0cc0</title>
<polygon fill="none" stroke="black" points="82,-122 4.26326e-14,-122 0,-86 88,-86 88,-116 82,-122"/>
<polyline fill="none" stroke="black" points="82,-122 82,-116 "/>
<polyline fill="none" stroke="black" points="88,-116 82,-116 "/>
<text text-anchor="start" x="11" y="-101.167" font-family="Helvetica,sans-Serif" font-size="10.00"> Starting Point </text>
</g>
<!-- n0cc0&#45;&gt;c0 -->
<g id="edge2" class="edge"><title>n0cc0&#45;&gt;c0</title>
<path fill="none" stroke="black" d="M62.8746,-85.7616C77.9782,-71.1671 99.0562,-50.7996 114.153,-36.2121"/>
</g>
<!-- c1 -->
<g id="node4" class="node"><title>c1</title>
<a xlink:href="null" xlink:title="&lt;TABLE&gt;">
<polygon fill="none" stroke="black" points="226,-122 106,-122 106,-118 102,-118 102,-114 106,-114 106,-94 102,-94 102,-90 106,-90 106,-86 226,-86 226,-122"/>
<polyline fill="none" stroke="black" points="106,-118 110,-118 110,-114 106,-114 "/>
<polyline fill="none" stroke="black" points="106,-94 110,-94 110,-90 106,-90 "/>
<polygon fill="lightblue" stroke="lightblue" points="113.5,-95.5 113.5,-112.5 218.5,-112.5 218.5,-95.5 113.5,-95.5"/>
<text text-anchor="start" x="117.5" y="-101.167" font-family="Helvetica,sans-Serif" font-size="10.00"> MainJavascriptClass </text>
</a>
</g>
<!-- c1&#45;&gt;c0 -->
<g id="edge4" class="edge"><title>c1&#45;&gt;c0</title>
<path fill="none" stroke="black" d="M155.365,-85.6726C152.403,-80.1117 149.355,-73.9082 147,-68 144.264,-61.1362 141.845,-53.5418 139.82,-46.3883"/>
<polygon fill="black" stroke="black" points="137.145,-36.3595 144.07,-44.8617 138.433,-41.1906 139.722,-46.0216 139.722,-46.0216 139.722,-46.0216 138.433,-41.1906 135.374,-47.1815 137.145,-36.3595 137.145,-36.3595"/>
</g>
<!-- c1&#45;&gt;c0 -->
<g id="edge6" class="edge"><title>c1&#45;&gt;c0</title>
<path fill="none" stroke="black" stroke-dasharray="5,2" d="M159.002,-85.7616C154.539,-74.1316 148.67,-58.8357 143.637,-45.72"/>
<polygon fill="black" stroke="black" points="139.988,-36.2121 147.772,-43.9362 141.78,-40.8802 143.571,-45.5484 143.571,-45.5484 143.571,-45.5484 141.78,-40.8802 139.37,-47.1605 139.988,-36.2121 139.988,-36.2121"/>
<text text-anchor="middle" x="164.5" y="-58.5" font-family="Helvetica,sans-Serif" font-size="10.00">«xml»</text>
</g>
</g>
</svg>
